<?xml version="1.0" encoding="UTF-8"?>
<svg viewBox="0 0 80.000008 89.176979" xmlns="http://www.w3.org/2000/svg">
 <path d="m63.89733,89.13984c-.52696-.10991-2.25354-1.42773-3.82797-2.92172l-.82335-.78127-1.05779.41898c-1.52143.60262-1.52681.60439-2.65001.86834-1.19487.2808-1.27699.29212-3.0707.42313-2.80838.20514-6.22747-.25777-8.30226-1.12402-4.55396-1.90135-7.47578-4.56405-9.47423-8.63403-.3225-.65679-.86689-1.70535-1.20976-2.33014-1.42346-2.59389-1.9471-5.14048-1.8605-9.04803 .05095-2.29909.04474-2.38692-.18398-2.59948-.34131-.31721-1.58756-.7663-2.50995-.90447-1.82635-.27358-3.79944-1.8054-4.78085-3.71165-.06412-.12455-.21766-.24413-.34119-.26574-.51537-.09015-3.06098-2.88722-3.63118-3.98987-.10367-.20047-1.25071-1.47469-2.54897-2.83159s-2.69004-2.82723-3.09283-3.2674c-1.84311-2.01414-4.74117-5.68384-6.13451-7.7679-.15638-.2339-.46986-.67917-.69663-.98949s-.81241-1.20395-1.30144-1.98584c-4.52254-7.23098-6.63951-13.10127-6.37763-17.68495 .06534-1.14359.30451-2.34819.62757-3.16075 .2079-.52292.96254-1.56534 1.74611-2.412 .40523-.43785.81595-.94964.9127-1.13729 .34261-.66451 1.87341-2.62338 2.46742-3.15738 .69709-.62669 1.87449-1.2176 3.14969-1.58077 .49161-.14001.95245-.29734 1.02409-.34961s.16553-.28513.20862-.51747c.11099-.59841.70178-1.6615 1.28192-2.30675 .50501-.56169 1.7827-1.58444 1.97939-1.58444 .12547,0-.3603.85626-.67747,1.19416-.11743.12511-.36198.45776-.54345.73925s-.39441.5527-.47321.60273-.14327.16586-.14327.25743-.04521.25535-.10046.36397c-.31515.61951-.3989.87314-.41392,1.25354-.02687.68037-.18497,1.37536-.34266,1.50623-.26293.21822-.28704-.07502-.06487-.78886 .11863-.38115.1795-.693.13527-.693-.13535,0-.63283.7301-.59975.8802 .01708.07753-.02367.3442-.09056.59262-.10408.38652-.18267.46861-.54492.56921-.23282.06466-.47448.11928-.53703.12136s-.263.15591-.44544.34182-.39817.33803-.47939.33803c-.23966,0-.92943.66715-1.45908,1.41123-.6175.86749-1.07249,1.97443-1.16238,2.82796-.06328.60086-.0517.65.1362.57789 .17647-.06772.19193-.04011.10983.19627-.13631.39249-.11652,1.57869.0473,2.83399 .07754.59424.13398,1.2598.18217,1.46955 .16725.72793.31704,1.31214.62103,2.14812 .06009.16525.15162.52351.22375.78935s.17593.48335.23067.48335c.19133,0 1.12457-1.36627 1.30011-1.90337 .09739-.298.22092-1.07931.27452-1.73625 .10267-1.25844.39363-1.6244 1.27854-2.8406 .25038-.34412.13322-7.12386.35711-7.12703 .3345-.00473.34493,7.03089.55123,8.09138 .30842,1.58546 1.24359,4.86439 1.81643,6.36885l.67093,1.76281c.61167,1.60741 2.38288,5.50239 2.84447,6.25513 .05754.09382.49019.89489.96145,1.78014s1.20488,2.18573 1.63026,2.88995 .90137,1.49546 1.05775,1.75829c1.55963,2.62135 2.03521,3.37526 2.43758,3.86414 .25741.31275.81155,1.08043 1.23143,1.70594s.88135,1.28352 1.0255,1.46223l.2621.32493 .52546-.35463c.86723-.58529 1.90726-1.01709 3.22363-1.3384 .68509-.16722 1.26207-.31591 1.28217-.33041 .03483-.02513-.6464-1.11129-1.38541-2.2089-.18952-.28148-.70564-.997-1.14693-1.59003s-.9303-1.32007-1.08668-1.61563c-.69308-1.30993-.94676-1.75407-1.10392-1.93275-.1919-.21818-.26511-.35304-1.30518-2.40422-1.93546-3.81704-3.21894-6.49796-3.90277-8.15205-.14223-.34403-.51406-1.21406-.82629-1.9334-.6522-1.5026-2.3897-6.23976-2.82704-7.7077-1.05892-3.55431-1.2056-4.2217-1.39726-6.35747s-.16005-3.43343.11067-4.44365c.33218-1.23956.97212-2.46532 1.67348-3.20539l.60049-.63365-.34744.53249c-.48105.73725-.86525,1.64001-1.16644,2.74081-.22773.83231-.25509,1.1901-.24971,3.26615 .00671,2.58959.16523,3.77458.9118,6.81565 1.98841,8.09961 7.18401,18.55751 14.03573,28.25158 .25814.36523.75646,1.18408 1.10737,1.81968s1.21774,2.02177 1.92628,3.0804c1.22346,1.82796 1.43552,2.23247.9819,1.87294-.18519-.14678-.18472-.13476.00634.16425 .11338.17744.18572.34305.16075.36802s-.36259-.1854-.75026-.4675c-1.11648-.8124-1.94083-1.17753-3.16856-1.40345-1.31189-.2414-1.67911-.23011-2.59341.07977-1.02852.34859-1.70388.76993-2.48305,1.54909-.71416.71417-1.44062,1.88674-1.44062,2.32531 0,.2879-.22182.32566-.24056.04094-.04422-.67192.46581-1.7699 1.21991-2.62619l.53499-.60749-.56484-.52981-.5142-.6841c-.29339.33561-.57482.72399-.91206,1.10115-1.17282,1.29535-1.91157,3.1077-1.91157,4.6896 0,.65432.04385.81436.32844,1.19869 .599.80894 1.81983,1.92177 2.11269,1.92579 .2407.00331.7433.46045.7433.67607 0,.19526.778,1.20022 1.3385,1.72897 1.2432,1.17279 2.66377,1.68319 4.46171,1.60308 .92973-.04142 1.18819-.09999 1.85302-.41991 1.70459-.82026 2.9095-2.4614 2.98461-4.06517 .02003-.4278.01111-.63708-.01984-.46506-.10749.59752-.25927.3077-.29781-.56865l-.03876-.8814-.02289.8814c-.02908,1.11999-.24282,1.16463-.27226.05687l-.02191-.82454-.03561.73924c-.074,1.53616-.31835,1.69493-.29788.19356l.01272-.9328-.07899.87732c-.09944,1.10456-.23312,1.26444-.25699.30736-.01001-.40137-.03662-.55064-.05913-.33171-.07604.73944-.14779.91979-.35238.88565-.10769-.01798-.23418-.08386-.28109-.14641-.05521-.07361-.11638-.06581-.17341.02213-.12858.19825-.5075.10735-.60663-.14552-.07875-.20089-.086-.19846-.09337.03138-.01085.33823-.235.45839-.23719.12715-.00141-.21224-.02322-.22988-.11373-.092-.09954.15163-.12442.15163-.22388,0-.06154-.09383-.14505-.41484-.18558-.71337s-.11813-.57023-.17244-.60379-.09874-.15243-.09874-.26414-.10115-.29466-.22478-.40654-.19503-.25155-.15868-.31037c.091-.14724-.36815-.62562-.97513-1.01598-.71518-.21172-.48796-.26419-.97287-.52672-.49087-.08463-.57833-.14171-.39486-.25773 .14048-.08885.1354-.10615-.03162-.10762-.36685-.00321-.20384-.2291.17059-.23641 .36384-.00709.36517-.00906.0853-.12567-.27089-.11286-.27358-.12289-.05687-.21225s.22149-.09401.00569-.10179c-.29287-.01056-.09517-.20014.27864-.2672 .15638-.02805.0327-.05798-.27485-.0665-.61658-.01707-.66397-.10606-.08017-.15054 .55492-.04229.55617-.20613.00158-.20613-.26432,0-.44743-.03316-.4069-.07368s.4201-.07159.84349-.06903c.61874.00373.70206-.01469.42456-.09386-.24624-.07025-.34525-.16827-.34525-.34181 0-.22635.04389-.23923.62957-.18475 .34626.03221.52722.033.40211.00175-.37228-.09298-.47356-.26097-.16491-.27352l.27864-.01134-.28432-.09106c-.15638-.05008-.45367-.09616-.66066-.10239-.23398-.00705-.34815-.05694-.30183-.13188s.3259-.09827.71752-.06355l.64302.057-.61556-.12612c-.82567-.16917-2.10675.04448-3.06129.51053-.88487.43204-1.92512,1.53104-2.41659,2.55306-.40167.83529-.6201,1.03897-.50788.47358 .156-.78598.76929-1.80282 1.4991-2.48552 1.03725-.97029 1.88262-1.33908 3.36456-1.46776 1.48789-.1292 2.03891-.03289 3.2664.5709 1.33669.6575 2.42622,1.75036 3.05753,3.06686 .62771,1.309.73709,1.78113.74823,3.22982 .00936,1.21689-.0019,1.2753-.4126,2.14049-.60025,1.26447-1.28092,2.14106-2.07866,2.67694-.6818.458-1.8664.92437-2.3563.92766-.14271.00095-.33625.05286-.43007.11534-.25726.17132.72037.01146 1.53535-.25104 .37531-.12089.92887-.37051 1.23015-.55471 .67154-.41057.88954-.43046.53061-.0484-.41408.44077-1.24802.93543-1.84606,1.09501-.29712.07928-.54022.1765-.54022.21603s.13313.13255.29585.20669c.26706.12168.33706.09758.71926-.24772 .23287-.21038.72431-.60481 1.09209-.87651s.93157-.75335 1.25286-1.07035 .98227-.94526 1.46884-1.39615c.86481-.80139.88291-.82922.80593-1.23955l-.07875-.41976-.46431.78463c-.54207.91605-.52693.89507-.59621.8258-.11096-.11097.76412-2.58653.93788-2.65321 .239-.09171.29851-.00633.57163.82012 .35568,1.07627 1.36821,2.1371 4.03157,4.22387 .42222.33081.76767.57725.76767.54763s-.37104-.35016-.82454-.71233c-1.56574-1.2504-3.72464-3.66977-3.72464-4.17401 0-.08925-.08033-.32331-.17852-.52013-.11408-.22868-.147-.45049-.0912-.61455 .04803-.14119.06971-.30788.04819-.37043s-.02819-.48478-.01483-.93827c.01441-.48908-.02189-.82454-.08923-.82454-.06244,0-.1313.11515-.15303.25589-.02725.1765-.12229.0089-.30632-.54022-.40626-1.21222-.97658-2.223-1.753-3.10686-.38685-.44039-.79238-.91948-.90117-1.06464-.16861-.225-.18662-.23039-.12203-.03649 .04167.1251.41669.59484.83338,1.04385 1.1006,1.186 1.75212,2.53585 1.99381,4.13084 .11779.77736-.03702.49422-.52346-.95742-.46493-1.38742-.58452-1.59885-1.58583-2.8037-.34403-.41396-.71313-.90136-.82021-1.08311s-.58285-.88783-1.05725-1.56906-.8471-1.32096-.8282-1.42162 .14921-.23354.28958-.29528 .25523-.18101.25523-.26502-.39386-.55778-.87524-1.05282-1.17377-1.32258-1.53864-1.83898l-1.34865-1.90561c-.72397-1.02134-1.66304-2.46737-1.93321-2.9769-.08873-.16734-.7546-1.29326-1.4797-2.50205-1.81022-3.01773-2.18288-3.69071-3.76754-6.80384-2.09609-4.11787-4.97915-11.32766-4.97915-12.45158 0-.14147-.10477-.49407-.23283-.78357s-.26222-.79498-.29813-1.12332l-.0653-.59696 .24395.2333c.16052.15351.26787.43521.31387.82367 .03846.32471.14249.65061.23119.72422s.14701.0868.12958.0293 .10389-.33485.2696-.61633 .36508-.65398.44305-.82777c.0875-.19503.52885-2.52599.57782-2.44675 .10328.1671-.43285,3.21742-.64874,3.54691-.18595.28378-.12631.40998.19373.40998 .11553,0 .29892.0449.40753.09977 .37557.18974 1.01112.35515 1.36457.35515 .19516,0 .38434.04774.42039.10608s.35894.16365.71752.23402c.60621.11896 1.00031.26372 1.74514.64104 .51958.2632 1.47463.31674 1.96859.11035 .56306-.23526.67647-.12682.23639.22603-.49961.40059-.20666.33489.42332-.09493 .41292-.28172.62307-.53986.88375-1.08553 .1881-.39376.34201-.75694.34201-.80707s.08146-.25444.18102-.45402c.14341-.28748.15236-.39742.04303-.52915-.22086-.26612-1.50566-1.15023-1.81086-1.24611-.1534-.04819-.64332-.27954-1.0887-.5141s-.98519-.46319-1.19957-.50806c-.45669-.09558-1.20593-.3187-2.3466-.69881-.45074-.1502-1.04942-.3046-1.3304-.34311l-.42913-.07002c-.61368-2.06313.00783-2.71945 2.22174-3.29409 1.6024-.41592 9.73976,2.63341 10.61533,2.54258 .96312-.09992 3.42419-1.8293 3.2521-3.25468-.17174-1.42239-6.65238-4.45259-10.28535-5.27694-.2122-.04815-1.33737-.42415-1.06844-.41707 .16696.00439 1.38224.14335 1.76802.24219s.7261.155.75628.12483-.19177-.10784-.4932-.17261-.67601-.16887-.83239-.23136c-.24086-.09624-.24956-.11449-.05687-.1194 .33477-.00853 2.06654.48819 2.84774.81681 2.7395,1.15241 5.10037,2.26774 5.22414,2.46802 .13722.22202-.23578.11913-.74974-.20681-.49118-.3115-2.26146-1.15324-2.4254-1.15324-.0433,0 .74427.41903 1.75016.93117 1.07938.54955 2.16519,1.19919 2.6495,1.58519 .45133.35972.8473.6246.87993.58862s-.01125-.09046-.0975-.12108-.42817-.30139-.75981-.60173-.72055-.60899-.86421-.68588c-.24389-.13052-.24699-.14478-.04666-.21506 .19386-.068.18264-.09774-.11627-.30828-.87934-.61939-4.01112-2.16251-5.96043-2.9369-.86744-.34459-2.22805-.63035-3.22067-.6764-.581-.02696-.84239-.01339-.58927.03059 .62605.10877.28581.23625-.84132.31521-1.4068.09856-2.6825.51155-3.49541,1.13159-.45041.34354-.60765.36415-.31552.04134 .54979-.60751 1.99384-1.19163 3.34435-1.3528l.85297-.1018-.90984.04381c-.90654.04364-1.36533.1772-2.7283.79423-.63125.28577-.66501.29052-.46068.06473 .34015-.37587 1.76324-1.00141 2.61598-1.14991 .47614-.08292 1.3993-.11171 2.43295-.07587 1.46842.05091 1.79848.10062 2.78726.41978 2.76469.89239 5.5999,2.45157 7.02459,3.86307 .86272.85474 1.29264,1.16086 1.51206,1.07665 .62515-.23989 7.72038,6.37113 11.57063,10.781 4.19555,4.80536 7.71326,9.55463 9.58066,12.93488 .54728.99065.66727,1.55066.16012.74728-.15802-.25031-.50435-.6512-.76962-.89086s-.63-.7165-.81051-1.05965-.5527-.88886-.82709-1.2127-.58995-.76792-.70123-.98685-.49067-.78189-.84307-1.25102-.72729-.98092-.83307-1.1373-.42256-.5658-.70395-.90984-.61633-.81743-.74432-1.05199-.2712-.42649-.31826-.42649-.17567-.16633-.28581-.36962-.41605-.60219-.67981-.88645-.78448-.89839-1.15717-1.36475-.96124-1.15807-1.30789-1.53712-.98853-1.11715-1.42639-1.6402c-1.03105-1.23167-4.22655-4.43629-5.72905-5.74541-1.78405-1.55442-2.44709-2.104-2.53842-2.104-.04568,0-.39961-.28245-.78651-.62768s-.72527-.60587-.75193-.57922 .02939.19903.12455.38305c.15223.29437.15345.39961.01018.87564-.23664.78629-.56543,1.25714-1.10877,1.58782-.2636.16043-.66335.45849-.88833.66236l-.57721.62291c6.99947,5.52674 16.01042,16.83143 18.85446,21.70892 3.0328-.92142 5.66212-.48445 8.75061,1.59831-1.05158-1.2937-2.17717-2.43712-3.10675-3.83533-.36051-.40612-.93112-1.17182-1.26802-1.70155-2.52429-3.96908-4.70282-6.90889-7.94425-10.72032-2.72677-3.20627-6.40352-6.98302-9.18196-9.4317-1.40063-1.23438-3.22238-2.70407-3.35185-2.70407-.04668,0-.31938-.20641-.606-.4587-1.24288-1.09403-5.10276-3.42765-6.73273-4.07051l-1.30789-.51828c-1.87759-.74676-4.85549-.98531-6.63049-.53115-2.04327.5228-3.59638,1.76259-4.56649,3.64524-.39002.75691-.72581,1.23368-1.12139,1.59222-.79938.72453-.87457.75685-.87275.37527 .00108-.22715.18218-.51399.63185-1.00079l.78776-.85602c.13666-.15075.39855-.7141.39855-.85732 0-.18114-.37804.00959-.59163.29848-.29559.3998-1.21088,1.04084-1.3571.95047-.16083-.0994-.11177-.38858.06593-.38858 .09038,0 .37982-.22991.64319-.5109s.73959-.65978 1.05826-.84173 .93765-.61982 1.37551-.97303c1.02756-.8289 1.71957-1.22209 2.84324-1.61547 .86195-.30175 1.01459-.31859 2.9001-.32002 2.36931-.00179 3.25579.1784 5.589,1.13604 2.1197.87 5.19814,2.68592 7.13109,4.20651 3.46891,2.72889 4.1771,3.33942 6.59493,5.68551 2.75254,2.67086 6.31386,6.58459 8.47404,9.31258 2.50093,3.1583 3.92999,5.16431 6.03229,8.46767 .17269.27134.66108.8677 1.08531,1.32523 1.11148,1.37738 1.99941,2.76893 3.35226,3.90733 1.36153,1.08964 2.76587,2.49524 3.31259,3.31558 .1876.28148.51427.89562.72594,1.36475 .49037,1.08683.50561,1.10442 1.00943,1.16496 3.13258.37638 6.27962,1.84023 8.66809,4.03197 1.1702,1.07381 1.69303,1.67659 2.29887,2.65041 .25295.40658.60673.96552.78618,1.24209s.32627.5707.32627.65364 .14776.47079.32835.86191 .36371.86464.40691,1.0523 .14563.41795.2276.51178c.2082.23831.71705,1.69916.97015,2.78516 .69102,2.96502.4983,6.39112-.52651,9.36027-.52246,1.51371-1.68202,3.541-2.61781,4.57682l-.38286.42378 .42746.52012c.23511.28607.77868,1.21603 1.20795,2.06658l.78048,1.54645c-.00074.70124.13202,1.32952-.31994,2.05406-.45731.73313-1.42238,1.32392-1.99978,1.55072-.2987.11734-.6054.14151-1.06569.084-.56008-.06998-.70907-.14487-1.11687-.56137-.25882-.26434-.90013-1.24512-1.42514-2.17951l-.9818-1.73295c-.01498-.01873-.2028.08362-.41736.22746s-.75965.43856-1.2113.65495c-.62787.30081-.83765.46145-.89111.68237-.20844.86131-1.30197,3.24649-1.98349,4.32634-.2566.40659-.59047.99514-.74192,1.30789-.48738,1.00646-1.09708,1.79538-1.62383,2.10114-.27671.16062-.52273.35088-.54671.42281s.35053.45467.83222.85054c1.50314,1.23533 3.13254,2.75352 3.2992,3.07401 .20285.39011.20666,1.57821.00659,2.05644-.15765.37683-1.00984,1.16527-1.87172,1.73169-.41468.27253-.62321.32607-1.36475.35039-.48141.0158-1.00323.00203-1.15961-.03059zm1.61155-.49483c.22956-.06376.53174-.20853.6715-.3217l.25411-.20577-.42941-.33161c-.23618-.18239-.86641-.68389-1.40051-1.11445s-1.17463-.92161-1.42339-1.09123l-.45229-.3084-.8374.51169c-.46057.28143-.8374.54403-.8374.58357 0,.13157 2.4776,2.05452 2.8625,2.22168 .45008.19548 1.01864.21555 1.59228.05622zm1.88726-1.48067c.73045-.71953.64822-1.47672-.23428-2.15718-1.60422-1.23697-2.23293-1.77526-3.35447-2.87202-.66987-.65508-1.67855-1.60201-2.24151-2.1043-1.31908-1.17692-2.62132-2.50336-2.53875-2.58593 .03549-.03549.31416.12341.61926.3531l.55474.41763-.34119-.37628-.34119-.37629 .45492.25004c.44216.24303.44707.24332.17485.01058-.15404-.1317-.51228-.37323-.79611-.53673-.61571-.35469-2.01001-1.45088-2.7622-2.17162-.29712-.2847-.54022-.46026-.54022-.39014 0,.1484-1.41357,1.28557-1.59803,1.28557-.06843,0-.02085-.13168.10575-.29262l.23017-.29262-.53468-.47876c-.29407-.26333-.91851-.85589-1.38764-1.3168s-.95533-.9238-1.08043-1.02862-.51783-.45907-.87274-.78721l-.64528-.59661-.32142.19795c-.29935.18436-.2955.17316.05601-.16302 .41715-.39895.47651-.90047.09898-.83629-.22585.03839-.22279.03137.42344-.97251 .22961-.35668.52176-.49664.52176-.24995 0,.06624.05283.08779.1174.04788s.57215.40488 1.12795.98842 1.25055,1.24011 1.54389,1.45904c1.33336.99513 2.10113,1.88942 2.10113,2.44736 0,.10001.04405.15461.0979.12133s.98785.67986 2.07557,1.58475c1.94557,1.61856 4.12693,3.20028 5.0768,3.68124 .26584.1346.48335.29008.48335.34551 0,.17186-.48-.00985-1.25102-.47361-.84822-.51019-.82204-.47386.3367.46717 .73088.59356.87275.66785 1.02357.53597 .0963-.08421.30303-.19063.45941-.23649 .59321-.17398 1.10463-1.06619 1.90281-2.41344 .80577-1.36006 1.05884-1.84698 1.55596-2.87537l.07634-.28432-.18093.28432c-.19958.31364-.20228.43558.03644-1.64908 .04298-.3753.07545-1.85947.07218-3.29815-.00544-2.38535-.02914-2.69593-.26903-3.52562-.37692-1.30361-.39721-1.40189-.24644-1.19416 .35223.48532.74649,2.37552.84883,4.05348 .05841.9577.10968,1.80952.08074,2.29226-.03632.60592-.03875,1.33385-.10446,1.61533-.18415.78882-.25531,1.45347-.1329,1.24117 .10295-.17853.27024-.78185.44755-1.61405 .11875-.55736.42103-.89275.73395-.81437 .13196.03305.34229-.01732.46739-.11195 .22384-.16932.2232-.17211-.04038-.17567-.24915-.00336-.26328-.03734-.20257-.48697 .15783-1.16877.20775-3.48025.09027-4.17956-.28681-1.70716-1.1776-4.88802-1.47668-5.27287-.05525-.0711-.16025-.30666-.23334-.52347-.12626-.37455-.28833-.64804-1.65264-2.78885-.63527-.99684-2.58492-3.03319-3.8771-4.04952-1.17743-.92608-2.14804-1.58148-2.34208-1.58148-.09424,0-.21996-.04671-.27938-.10381s-.64541-.34388-1.3022-.63729-1.39887-.63625-1.64908-.76186-.63404-.26921-.85297-.31912l-1.19416-.27295c-1.38116-.31611-3.15327-.51023-4.81021-.52693-.9883.34494-2.66048.27149-2.78124.29057-5.57887.88152-8.06387,3.05152-8.49342,3.35034-.3277.22797-.43077.69455-.23676.6354 .34084-.10391 2.95215-1.45328 3.49917-1.71854s1.30166-.5626 1.67696-.66075 .80553-.21355.95605-.25645c.45807-.13056.17075.15337-.30369.3001-.2337.07228-.91109.35288-1.50533.62356l-1.49777.67399c-.22954.10001-.43425.224-.45492.27553s-.31906.22897-.66309.39433c-.81249.39052-1.36779.71531-1.57182.91934-.00133,1.7463.23033,2.52281.94631,3.36729 1.11048,1.30978 2.40191,2.4595 3.69621,3.63254 1.79087,1.54221 5.80836,5.34462 6.07191,5.74685 .15601.23809.16951.33769.06317.46583-.0744.08964-.20569.16298-.29178.16298s-.83469-.59457-1.66358-1.32127-1.80932-1.58393-2.17874-1.90497-.98356-.87146-1.36475-1.22317c-1.12173-1.03496-1.65339-1.4712-2.91358-2.39065-.65526-.4781-1.54045-1.25857-1.96708-1.73438s-.81256-.86511-.85762-.86511c-.09647,0-3.76235,3.15924-4.69867,4.0493-.35503.33748-.68768.61361-.73924.61362-.19803,3e-005-.2214,4.87074-.03028,6.31198 .13341,1.00603 1.17475,4.29291 1.42618,4.50158 .19649.16307.2065.01058.05064-.77134-.13782-.69141-.20345-2.53612-.09023-2.5361 .04691,1e-005 .08544.21753.08562.48337 .00046.69174.21889,2.46016.36172,2.92853 2.76875,8.43515 10.66244,13.03616 19.2563,12.06186 2.09269-.31123 4.87423-1.16557 4.37859-1.34487-.09383-.03394-.37531-.22652-.62551-.42795s-.62125-.4507-.82454-.55392c-.36383-.18474-.46526-.29556-.27048-.29556 .05453,0 .48234.25015.9507.5559s.97391.58886 1.12345.62913c.18606.05011.14624.00131-.12616-.15461-.54097-.30965-1.22856-.90986-1.04664-.91364 .08114-.00168.52052.20166.9764.45186s.94719.45492 1.09179.45492 .48151.17912.74868.39805 .52038.39806.56268.39806c.14956,0 1.65439-1.05993 1.62281-1.14303-.01763-.04638-.94451-.88223-2.05972-1.85745s-2.1132-1.86842-2.21773-1.9849-.8248-.76968-1.6006-1.45157c-2.14384-1.88432-2.5249-2.2065-2.60979-2.2065-.04295,0-.32231.20181-.6208.44847-.50524.4175-.52711.45682-.31674.5694 .12428.06652.47035.44046.76904.83099 .75211.98337 1.84574,2.12673 3.5883,3.75149 .81628.76109 1.42443,1.40371 1.35145,1.42804s-.27179-.0408-.4418-.14473c-.23846-.14577-.21812-.10796.08894.16539l.39805.35434-.84665-.4161c-1.09789-.53958-2.06706-1.22542-4.13772-2.9281-2.19406-1.80415-2.56953-2.10146-2.29433-1.81671 .37385.38681 3.21957,2.72716 4.35642,3.58276 .58205.43805 1.03123.82349.99819.85653s-.1766-.02476-.31902-.12844l-1.05505-.72742c-1.8525-1.25401-4.41471-3.38504-4.51729-3.7571-.08726-.31651.04176-.47176.3946-.47485 .10947-.00096.19903-.04272.19903-.09279s.2303-.23663.51178-.41455 .51178-.38245.51178-.45452c0-.2152.8275-.95642 1.22084-1.09354 .35654-.12429.39153-.10518 1.39974.76407l1.76332,1.51705c.40109.34403 1.33537,1.18847 2.07617,1.87653 2.00483,1.86211 2.72487,2.47513 3.23047,2.75029 .47057.25611.77257.68316.77257,1.09248 0,.2279.00773.22702.28388-.03241 .32194-.30245.53421-.22514.24854.09051-.17545.19388-.15526.23258.34158.65465 .55779.47384 1.20257.94748 2.13984,1.57186 .31276.20835.66465.48701.78199.61924 .2468.27814.38982.22919.954-.32655zm-18.48569-9.21531c-.67077-.63983-1.50105-1.43877-1.84509-1.77542s-.75346-.70901-.90984-.82745c-.21487-.16275-.25244-.24782-.15379-.34828s.19325-.04809.39101.21939c.14326.19377.31482.35158.38125.35068s.564.44692 1.10572.99513c1.02495,1.03724 1.29519,1.28434 1.95525,1.78779 .43114.32885.58137.58453.40684.6924-.06148.03799-.66059-.45441-1.33136-1.09424zm-1.74105-1.15686c-.27615-.26584-.78357-.72117-1.1276-1.01183s-.59186-.56315-.55074-.60552c.08331-.08582 1.04413.75382 1.79599,1.56948 .61119.66307.54807.68875-.11765.04787zm-1.69625-1.89832c0-.0589.31986-.35012.71081-.64717s1.03055-.83554 1.42135-1.19666c.7409-.68463 1.166-.97463 1.166-.79543 0,.0577-.51433.49674-1.10886,1.01589-.80774.70533-1.29054,1.09786-1.50079,1.32072-.37251.39485-.6885.52998-.6885.30265zm-.3791-.42366c-.30505-.30505.1777-.82437 2.02818-2.18179 .68806-.50474 1.52132-1.12819 1.85169-1.38546 .93438-.72763.93858-.47263.00512.3107-2.13503,1.79162-2.58876,2.1649-3.08291,2.53627-.29132.21893-.53125.43769-.53319.48614s.52106-.33889 1.16221-.86074c1.50129-1.22196 3.16549-2.51269 3.38345-2.62417 .27264-.13944-2.2436,2.11945-3.68396,3.30719-.53961.44497-.94852.59393-1.13059.41186zm-.86031-.33197c-.29984-.21305-.33737-.27458-.16747-.27458 .2509,0 .7245.30159.7245.46136s-.12946.11703-.55703-.18678zm-.97832-.82751c-2.67718-1.15932-6.65917-3.22077-7.64898-3.95983-.20366-.15206-.41909-.24632-.47872-.20946s-.21287.0141-.34052-.05057c-.60611-.30708-.68779-.34504-.74233-.34504-.03212,0-.06701.19192-.07753.42648l-.01912.42649-.04426-.42055c-.02807-.2667.02545-.52694.1463-.71138 .1625-.24801.16765-.31843.03496-.47832-.13691-.16496-.17799-.09317-.34195.59765l-.18635.78514-.01206-.56865c-.01559-.73547.18668-1.49456.35374-1.3275 .18971.18971.46808-.25036.98792-1.56176 .25558-.64476.46469-1.19245.46469-1.21708s-.07107-.04479-.15794-.04479-.18933.16737-.23047.38661c-.0983.52396-.39012,1.0954-.71731,1.40463-.45353.42863-.5295.25836-.11809-.26466 .37623-.47829.69251-1.43278.51232-1.54612-.07782-.04895-.22498-.06305-.32704-.03134s-.21342-.01495-.24748-.1037-.29601-.25077-.58212-.36003-.5202-.24739-.5202-.30694c.93558-.09771 1.80441.36813 2.67264.70577 1.65766.64283 2.24396,1.01349 3.8668,2.44461 3.83855,3.38505 4.5176,3.92367 5.4242,4.30247l.40736.17021 .48607-.49526c.57513-.58602.65353-.43733-.99616-1.88908-.66383-.58418-1.89678-1.68941-2.73988-2.45607s-1.82005-1.55992-2.17098-1.76281l-.63806-.36888 .45492-.05687c.36736-.04592.45492-.10257.45492-.29437 0-.13063-.05778-.30975-.1284-.39805-.21267-.26591-.61084-1.10632-.61084-1.28928 0-.09409-.12795-.40026-.28432-.68036-.30599-.54808-.35144-.74982-.16892-.74982s.56608.70507.56655,1.03103c.00023.16049.20734.69786.46024,1.19416s.43681.99193.4087,1.1014-.01482.19902.02954.19902c.08097,0 2.01645,1.62982 2.22951,1.87742 .06255.07269.72787.66518 1.47848,1.31664 1.43013,1.24122 2.78637,2.57361 2.78637,2.73737 0,.05293-.04957.09624-.11016.09624s-.08267.07164-.04906.15921c.09401.24498-.85147,1.06737-1.31926,1.14753-.48277.08272-1.20606-.15448-1.79305-.58802-.41777-.30857-2.17039-1.81036-4.78366-4.09905-1.54341-1.35171-3.31775-2.39674-3.31775-1.95404 0,.30537-.82489,1.82237-1.08284,1.99139-.31256.20479-.23767.42626.19004.56201 .12317.0391.61754.35495 1.09859.70191s1.05376.70634 1.27269.79863c.55014.23192 2.80307,1.26761 4.0374,1.85602 .56296.26836 1.70907.79881 2.54692,1.17877 1.58531.71892 1.86736.93921 1.64902,1.2879-.21447.34254-.73289.26687-2.03508-.29703zm1.08043-.12945c-.21893-.11986-.44923-.21793-.51178-.21793s.06539.09807.28432.21793 .44923.21792.51178.21792-.06539-.09806-.28432-.21792zm-1.42162-.60132c-1.57838-.7044-6.83251-3.36425-7.21549-3.65276-.21544-.16231-.47274-.2951-.57177-.2951s-.30063-.08445-.44799-.18767c-.1909-.13371-.25345-.14422-.21756-.03656 .06246.18737.48936.41382.971.51506 .07593.01597.28065.13.45492.25342 .68109.48234 7.42206,3.77248 7.70928,3.76275 .06255-.00212-.24452-.16373-.68238-.35914zm23.60509-8.85298c-1.73502-3.39482-4.32689-5.97782-7.71058-7.68418-.45305-.22847-.80658-.43255-.78562-.45351 .06963-.06962 1.52535.63439 2.49037,1.20438 2.51231,1.4839 4.60583,3.7107 5.88502,6.25967 .36478.72688.71003,1.59822.63325,1.59822-.02195,0-.25255-.41606-.51244-.92458zm-27.83344-3.14125c-.03855-.10946-.1393-.3716-.22389-.58253-.1962-.48923-.19326-.53006.0251-.34884 .16286.13517.6172.92208.6172,1.069 0,.15613-.35623.03895-.41841-.13763zm2.80673-4.63155c0-.06842.64047-.40225.76203-.3972 .15729.00655-.43798.45114-.60403.45114-.0869,0-.158-.02428-.158-.05394zm1.05339-.54902c.02467-.07496.16188-.15341.30492-.17434s.4205-.13589.6166-.25546 .43984-.21761.54165-.21784 .25023-.0789.32982-.17481 .20102-.15443.26982-.13006 .25304-.00605.40942-.06762c.76332-.30056 3.97214-.82099 3.7436-.60717-.02606.02439-.26308.07381-.5267.10982-1.20104.17945-2.37329.53467-3.5335.86941-.14044,0-.693.17648-1.22791.39218-.53749.21673-.95251.3312-.92771.25589zm19.07558,30.11652c.4385-.28107.79727-.53998.79727-.57536 0-.07292-.02218-.0607-.99513.54821-.64807.40558-.80948.53819-.65511.53819 .03064,0 .41447-.22997.85297-.51104zm-4.10258-1.80985c-.02606-.02546-.35446-.28429-.72977-.57519-.72309-.56046-2.62288-2.3837-3.45358-3.31442-1.42661-1.59838-1.36163-1.54672-1.66656-1.32496-.15118.10995-.27331.22549-.2714.25677s.46979.4407 1.03973.90983 1.55196,1.29083 2.18225,1.82599c1.26504,1.07411 2.78258,2.26828 2.88251,2.26828 .03531,0 .04287-.02084.01681-.0463zm6.08832-2.65648c-.592-.47671-.67919-.53025-.36762-.22576 .17602.17202.35505.31276.39785.31276s.0292-.03915-.03023-.087zm-.96101-.74615c0-.02037-.14074-.16111-.31276-.31276l-.31276-.27571 .27572.31275c.2577.29232.3498.36491.3498.27572zm-.90984-.79611c0-.02037-.14074-.16111-.31276-.31275l-.31276-.27572 .27572.31276c.2577.29231.3498.36491.3498.27571zm-.79611-.68092c0-.01957-.16633-.1859-.36962-.36962l-.36962-.33404 .33403.36962c.31137.34454.40521.4219.40521.33404zm.68238-.00735c0-.02362-.08956-.11318-.19903-.19903-.18038-.14147-.1844-.13744-.04294.04294 .14857.18944.24197.24969.24197.15609zm-.79611-.56865c0-.02362-.08956-.11318-.19903-.19903-.18038-.14146-.1844-.13744-.04294.04294 .14857.18945.24197.24969.24197.15609zm15.46722-3.35575c.0504-.03878.30347-.13025.68238-.42048 1.04771-.80251.77662-1.50382.68142-1.92417-.094-.41504-.26215-.57434-.5831-1.1373s-.7096-1.27664-.86368-1.58595-.40315-.74341-.55349-.96467c-.41072-.60442-.35491-.90384.33323-1.78791 1.1088-1.42448 2.37008-3.68806 2.53-4.5405 .04023-.21446.11303-.38993.16178-.38993s.11499-.16633.14721-.36962 .16564-.74955.2965-1.2139c.65041-2.30798.51043-5.98538-.32367-8.50301-.47169-1.42376-.69848-2.02387-.80514-2.13052-.14617-.14618-.14873.22032-.00343.49182 .39139.73133.86474,4.70906.73891,6.20935-.15655,1.86647-.67791,4.07166-1.39915,5.91797-.4534,1.16067-1.29909,2.78827-1.77041,3.4073-.14311.18796-.29315.44602-.33342.57347s-.33771.4857-.66096.79611c-.36373.34928-.49253.43434-.33794.22319 .5974-.81595 1.21838-1.69231 1.31989-1.86268l.45829-.7531c.34686-.56615.62596-1.1369.62596-1.28004 0-.04134-.25991.37812-.57758.93214-1.51285,2.63843-3.6574,4.90606-5.5311,5.84854-.38859.19546-.76031.45587-.82604.5787-.30636.57243 2.62328-1.46416 3.71172-2.58027 .62079-.63658.7439-.6234.18959.02029-.55701.64683-2.80303,2.51781-3.37489,2.81137-.24063.12352-.41122.25087-.3791.28299 .07997.07997 1.51329-.78952 2.04689-1.2417 1.02654-.8699 1.7282-1.50304 1.97099-1.77853 .18537-.21033.26133-.24475.26389-.11959 .00326.15968-1.04841,1.28893-1.92817,2.07041-.19365.17202-.31162.31311-.26216.31354 .11095.00095.32451.33005 1.46534,2.25811 .49455.83581 1.06757,1.66771 1.27338,1.84866 .35413.31135.35341.10789.68238.15927 .27144.0424.60965.09.93368-.15936zm-1.02357-7.68374c0-.09041.1374-.23115.30533-.31275 .27257-.13245.53796-.54386 1.23288-1.91118 .23332-.45907.30827-.7961.17705-.7961-.1178,0-.06039-.16535.65633-1.8905 .71224-1.71438 1.35021-4.5517 1.39597-6.20845 .01159-.41987.06347-.7372.11529-.70518 .11249.06953.11203.10678-.02723,2.20781-.17588,2.65339-.20002,2.8341-.49982,3.74142-.15713.47555-.34383,1.04375-.41488,1.26268s-.3524.87453-.62521,1.45689-.49603,1.087-.49603,1.12142-.34064.54313-.75698,1.13046c-.70431.99358-1.06269,1.29826-1.06269.90348zm.23127-.77361c-.0021-.04677.17531-.33436.39424-.6391s.39805-.61192.39805-.68264 .04871-.12858.10824-.12858c.16607,0-.12045.58755-.53091,1.08871-.20119.24565-.36752.40838-.36962.36161zm-21.10064,7.42059c-.4345-.43786-.8156-.79611-.84687-.79611s.29864.35825.73314.79611 .8156.7961.84687.7961-.29864-.35825-.73314-.7961zm-.73924-.28433c-.52892-.53168-.98727-.9667-1.01854-.9667s.37589.43502.90481.9667 .98727.9667 1.01854.9667-.37589-.43501-.90481-.9667zm1.70188.58752c-1.41279-1.28714-3.48221-3.19797-3.94804-3.64549-.32839-.31548-.59708-.53903-.59708-.49677 0,.11669 4.4762,4.29274 4.60198,4.2934 .06032.00032.03473-.06769-.05687-.15114zm-2.38901-1.62054c-.27887-.28668-.86528-.83184-1.30314-1.21148-.45436-.39394-.25908-.17259.45492.51563 1.29075,1.24416 1.74045,1.61309.84822.69585zm-1.24627-.78665c-.466-.46913-.87287-.85297-.90414-.85297s.32441.38384.79041.85297 .87287.85297.90414.85297-.32441-.38384-.79041-.85297zm18.89919-1.63769c.45809-.3065 1.3105-1.01652 1.89425-1.57783 .56898-.43206.96338-.98953 1.40948-1.52076 .6684-.77359 1.37275-1.76401 1.74668-2.50552 .21057-.41756.39899-.61721.50127-.83239 .14007-.29468.23176-.74516.48986-1.18783 .40395-.99801.86705-2.41249.92336-2.82032 .02386-.1728.1284-.69802.23232-1.16715 .20401-.92106.29504-3.18877.17159-4.27485-.04203-.36981-.04094-.77162.00244-.8929 .12559-.35118.24644.59358.2828,2.21078 .04793,2.13136-.56294,5.28938-1.38106,7.13977-.34519.78075-.34399,1.0518.00137.30952 .43121-.9268.94072-2.63581 1.22063-4.09427 .39319-2.04869.37011-4.92486-.05531-6.89289-.56413-2.60976-1.77896-4.89165-3.80372-7.14479-.77448-.86184-.80061-1.02488-.07107-.44351 .41543.33106.40593.31193-.11625-.23411-.74724-.78139-1.95986-1.58088-3.63935-2.39946-2.31353-1.12762-4.04811-1.56383-6.61104-1.66254-.86202-.0332-1.59977-.08042-1.63944-.10494-.1014-.06267-2.72069.3552-3.06561.48908-.15638.06069-.8089.27846-1.45005.48393-1.34216.41315-2.52543.96819-3.62896,1.84728-.76443.47086-1.25785,1.13281-1.7538,1.85004-1.01374.99038-2.6295,3.19507-3.28905,4.48791-.2165.42437-.21857.45552-.03081.46212 .41331.01452 2.05181.10376 2.93344.15977 .50184.03188 1.55099.18591 2.33145.34229s1.52775.28491 1.66062.28564c3.37565.97128 6.25667,2.79513 8.7146,5.25311 1.16747,1.19366 1.73247,2.06322 2.48681,3.14467 .49042.70307.61231,1.02437.81139,1.63612 .06943.21534.25356.55281.35325.77174 .23431.51456 1.10046,3.68951 1.14797,4.20799 .02006.21893.08758.65395.15004.9667s.11944.90131.12662,1.30789 .04243.99513.07833,1.30789 .01638.78363-.04339,1.04639c-.09296.40874-.07821.60269.04584.60269 .01626,0 .40436-.25077.86245-.55726zm7.24581-17.38357c-.06649-.17202-.14859-.49189-.18245-.71081-.11904-.76989-.86071-2.90433-1.13875-3.2772-.15465-.2074-.25383-.40444-.2204-.43787 .32457-.32457 1.38735,2.33957 1.7202,4.31215 .08447.5006-.00663.55861-.1786.11373zm-2.0563-5.32412c-.20685-.29921-.68315-.92352-1.05846-1.38736-1.00006-1.23596-1.08775-1.41105-.35527-.70938 .68255.65385 1.98159,2.44899 1.8601,2.57048-.03866.03866-.23952-.17452-.44637-.47374zm-27.55744,19.96679c-.30805-.31275-.58569-.56864-.61696-.56864s.19518.25589.50323.56864 .58569.56865.61696.56865-.19518-.25589-.50323-.56865zm-1.59221-1.47848c-.24432-.25021-.46981-.45492-.50108-.45492s.14303.20471.38735.45492 .46981.45492.50108.45492-.14303-.20472-.38735-.45492zm-.9667-.82929c0-.01826-.2431-.26135-.54022-.54022l-.54022-.50703 .50703.54022c.47129.50213.5734.59242.5734.50703zm-1.87654-1.78649c-.24432-.25021-.46981-.45492-.50108-.45492s.14303.20471.38735.45492 .46981.45492.50108.45492-.14303-.20472-.38735-.45492zm-.73924-.61159c0-.02361-.08956-.11318-.19903-.19902-.18038-.14147-.1844-.13745-.04294.04294 .14857.18944.24197.24969.24197.15608zm-10.72591-6.7524c-.02861-.10946-.05201-.0199-.05201.19903s.02341.30849.05201.19903 .02861-.28859 0-.39806zm.33739-.05903c-.03115-.077-.05475.01354-.05243.20119s.02781.25066.05664.14 .02694-.26419-.00421-.34119zm.34191-.22529c-.03155-.07819-.05736-.01422-.05736.14216s.02581.22035.05736.14216 .03155-.20613 0-.28432zm.33458-.16823c-.03779-.03779-.06467.02938-.05973.14927 .00546.13249.03241.15944.06871.06872 .03285-.0821.02881-.1802-.00898-.21799zm2.16675-.17512c-.03115-.077-.05475.01353-.05243.20119s.02781.25065.05664.13999 .02694-.26419-.00421-.34118zm-3.48215-.3021c-.32839-.6437-.38354-.58105-.08238.09361 .13675.30636.26443.51489.28372.46341s-.07131-.30214-.20134-.55702zm1.6632.30426c-.03155-.07819-.05736-.01422-.05736.14216s.02581.22035.05736.14216 .03155-.20613 0-.28432zm.68238-.22746c-.03155-.07819-.05736-.01422-.05736.14216s.02582.22035.05736.14216 .03155-.20613 0-.28432zm.33458-.16822c-.03779-.0378-.06467.02938-.05973.14927 .00546.13248.03241.15943.06871.06871 .03285-.0821.02881-.18019-.00898-.21798zm.3478-.05924c-.03155-.07819-.05736-.01421-.05736.14216s.02581.22035.05736.14217 .03155-.20614 0-.28433zm-2.40131-.30219c-.24983-.48311-.33087-.44561-.09697.04487 .10403.21815.20933.37644.234.35176s-.03699-.20316-.13703-.39663zm-11.32329-.44994c.00514-1.12895.83643-3.38173 1.56699-4.24651 .63743-.75453 1.08862-1.1555.8518-1.54491l-.38082-.24812c-.21079-.15873-.66323.72871-.84487.92945-.78.86204-1.50761,2.0271-1.81508,2.90635-.14613.41787-.32146.77836-.38963.80108-.20876.06959-.13974-.60615.14088-1.37925 .34575-.95253 1.69504-2.86882 2.44468-3.75246l-4.14471-4.5698-.3344-.41779c-3.17664-3.64031-5.65153-6.86298-8.58906-10.90286-3.22389-5.19594-4.67184-8.48805-5.47528-12.44882-.32413-1.59788-.34983-4.66868-.04837-5.77934 .11573-.42639.1834-.80226.15037-.83529-.10779-.10779-.39883.47713-1.11093,1.5728s-2.24917,2.43038-2.49795,4.47318c-.24652,2.02422-.2693,2.83045-.10662,3.80994 .07791.46913.2069,1.2624.28663,1.76281 .48587,3.04932 1.92596,6.73848 4.18775,10.72798 1.39312,2.45727 4.99646,7.50741 6.39999,8.96969 .31853.33187 1.35915,1.51172 2.69757,3.05851 1.39426,1.61133 2.63393,2.93808 4.30383,4.60616 .74513.74432 1.45333,1.58815 1.85353,2.20851 .68025,1.05448.84998,1.11386.85369.29869zm-17.44573-35.85536c-.33212-1.54417-.42557-3.30334-.19644-3.69762 .11745-.2021.12344-.20141.14137.01642 .0103.12511.00781.43834-.00554.69607s.03481,1.06847.10702,1.80163 .10434,1.35997.0714,1.39292-.08596-.0613-.11782-.20942zm27.39881,35.72609c-.24432-.25021-.46981-.45492-.50108-.45492s.14303.20471.38735.45492 .46981.45492.50108.45492-.14303-.20472-.38735-.45492zm3.48263.03696c-.13407-.23055-.16644-.15676-.0567.12924 .039.10164.09487.16084.12415.13156s-.00107-.14664-.06746-.2608zm-.79588-.06729c-.11232-.11149-.12539-.09842-.06367.06367 .04271.11216.1063.17528.14132.14026s7e-005-.12678-.07765-.20393zm-2.06124.1095c0-.019-.19192-.21092-.42648-.42648l-.42649-.39193 .39193.42648c.3648.39697.46104.47878.46104.39193zm.45492-.00838c0-.02362-.08956-.11318-.19903-.19903-.18038-.14146-.1844-.13744-.04294.04294 .14857.18945.24197.24969.24197.15609zm1.36476-.52571c-.06695-.1251-.14732-.22746-.1786-.22746s-.00208.10236.06487.22746 .14732.22746.1786.22746 .00208-.10236-.06487-.22746zm6.53945-1.45038c1.24914-.6267 5.36488-1.87995 6.63459-2.02023 .82605-.09127.73937.00074 2.00936-2.13296 .87495-1.46999 1.5591-2.38138 2.5594-3.4095 .4108-.42222.71115-.76767.66745-.76767-.85383-.69339-1.52293-1.64098-2.1912-2.49816-.35629-.1368-2.09488-2.15683-2.70477-3.14261-1.14401-1.84909-5.73535-6.47008-10.61511-10.68365-.93843-.81032-4.02246-3.30847-4.48764-3.63511l-1.26268-.89687c-1.23742-.88238-3.54744-2.44265-4.23852-2.86285-1.20361-.73182-1.4029-.84878-1.91961-1.12658-.37295-.2005-.71258-.2884-1.11439-.2884-.42501,0-.94907-.14728-1.98038-.55659-1.27237-.50497-2.87234-1.01468-3.76121-1.19821l-.45492-.09609c-.13385-.03018-.18133.6049-.0576.77046 .04675.06255.24984.67669.45131,1.36476s.61018,1.83957.90824,2.55891 .68434,1.69173.8584,2.16086c.34705.93536.80657,2.00752.97488,2.27459 .05913.09383.13939.24737.17836.34119 .20528.49424.86202,1.89944.95675,2.04713 .06018.09383.21817.4009.35108.68238s.29671.61414.364.73924l.84878,1.64908c.39955.78189.79094,1.49839.86977,1.59222s.32217.50325.54076.90983c.47403.88172 2.13384,3.71319 2.60007,4.43545 .1817.28148.39311.63973.4698.79611s.28222.45243.45673.6579 .31729.42184.31729.48082 .45224.73532 1.00497,1.50296 1.06779,1.51363 1.14458,1.65774 .58674.70746 1.13323,1.25187 1.30141,1.45006 1.67761,2.01256l1.04623,1.551c.19923.29056.36224.64358.36224.7845 0,.1668.33308.60173.95438,1.24624 .70356.72983 1.06223,1.21425 1.36475,1.84322 .22571.46925.41037.90847.41037.97602s.04949.253.10998.4121l.10998.28928 .88515-.66529c.48683-.36591 1.19222-.81935 1.56753-1.00765zm-8.18853,1.10919c-.24432-.2502-.46981-.45492-.50108-.45492s.14303.20472.38735.45492 .4698.45492.50108.45492-.14303-.20471-.38735-.45492zm.85297.41198c0-.02362-.08956-.11318-.19903-.19903-.18038-.14146-.1844-.13744-.04294.04294 .14857.18945.24197.24969.24197.15609zm-2.27459-.12473c0-.06898-.64151-.40253-.76203-.39621-.05002.00262.08818.10283.30711.22269 .44826.24541.45492.24795.45492.17352zm1.25103.011c0-.02362-.08956-.11318-.19903-.19903-.18038-.14146-.18441-.13744-.04294.04294 .14857.18945.24197.24969.24197.15609zm2.38832-.41198c-.06695-.1251-.14732-.22746-.1786-.22746s-.00209.10236.06487.22746 .14732.22746.1786.22746 .00209-.10236-.06487-.22746zm-2.84324.07079c0-.02361-.08956-.11318-.19903-.19903-.18038-.14146-.1844-.13744-.04294.04294 .14857.18945.24197.2497.24197.15609zm2.04713.0037c0-.02158-.11515-.13673-.25589-.25589l-.25589-.21665 .21665.25589c.2036.24047.29513.30767.29513.21665zm-3.89524-.15289c-.10946-.0286-.28859-.0286-.39805,0s-.0199.05202.19903.05202 .30849-.02341.19903-.05202zm3.32659.04385c0-.01901-.19192-.21093-.42649-.42649l-.42648-.39193 .39193.42649c.3648.39696.46104.47877.46104.39193zm-1.9334-.24685c0-.08381-.65332-.40133-.81889-.39799-.08129.00164.0569.09985.30711.21825 .54544.2581.51178.24628.51178.17974zm-1.2297-.13748c-.0821-.03285-.18019-.02881-.21798.00898s.02938.06467.14927.05973c.13249-.00545.15944-.0324.06871-.06871zm2.08305-.14915c-.03845-.06222-.18221-.16801-.31947-.2351-.215-.10508-.21018-.08976.03477.11059 .31841.26045.38735.2906.2847.12451zm1.6487.07856c0-.01901-.19192-.21093-.42649-.42649l-.42649-.39193 .39193.42649c.3648.39696.46104.47878.46104.39193zm-.11373-.59096c-.33976-.34403-.64333-.62551-.67461-.62551s.22112.28148.56088.62551 .64333.62551.67461.62551-.22112-.28148-.56088-.62551zm-3.50429.32036c-.0821-.03285-.18019-.02881-.21798.00898s.02938.06467.14927.05974c.13249-.00546.15944-.03241.06871-.06872zm2.82191.04065c0-.02037-.14074-.16111-.31276-.31275l-.31276-.27572 .27571.31276c.2577.29232.3498.36491.3498.27571zm1.36476-.226c0-.01957-.16633-.1859-.36962-.36962l-.36962-.33404 .33403.36962c.31137.34454.40521.4219.40521.33404zm-4.06583-.15347c-.07819-.03154-.20613-.03154-.28432,0s-.01422.05737.14216.05737 .22035-.02582.14216-.05737zm2.0187-.205c0-.02907-.11515-.10866-.25589-.17686-.24573-.11908-.24712-.11698-.03513.05286 .23204.1859.29102.21103.29102.124zm-2.02581-.13855c-.0821-.03286-.18019-.02882-.21798.00898s.02938.06467.14927.05973c.13249-.00546.15944-.03241.06871-.06871zm1.34343-.2635c-.09383-.06064-.22177-.11025-.28432-.11025s-.03696.04961.05686.11025 .22177.11024.28432.11024 .03696-.04961-.05686-.11024zm1.25103-.05207c0-.07357-.96491-.6305-1.09042-.62938-.05706.00051.15215.15147.46491.33546 .62666.36866.62551.36812.62551.29392zm-2.48073-.36681c-.0821-.03285-.18019-.02881-.21798.00898s.02938.06467.14927.05973c.13249-.00546.15944-.03241.06871-.06871zm.79611-.45492c-.0821-.03285-.18019-.02881-.21798.00898s.02938.06467.14927.05973c.13249-.00545.15944-.0324.06871-.06871zm1.90277-1.48609c-1.5491-2.09059-1.36738-1.91879-2.11198-1.99662s-2.52254.07221-2.84745.23852c-.11328.05798-.36586.13565-.56129.1726s-.69099.25168-1.10124.47719l-.74591.41 .41887.65523 .41886.65523 .51727-.26767c.79108-.40935 1.65729-.59754 2.75725-.59902 1.31916-.00178 2.61973.26815 3.26493.67762l.53566.3347c.01313.00544-.2321-.33556-.54496-.75778zm44.94059.39805c-.31126-.79662-.62318-1.43309-.84992-1.73425-.14134-.18772-.4466-.66705-.67837-1.06518s-.64582-.9483-.92012-1.2226c-.54237-.54237-.85508-.69456-.38211-.18596 .30247.32525 1.57138,2.02878 1.57138,2.1096 0,.02537.28477.56547.63282,1.20021 .60882,1.1103.83713,1.43772.62632.89818zm-52.39722-.36154c-.1785-.21448-.41625-.50876-.52834-.65394l-.07165.02035c.12295.26453.77419,1.02357.87819,1.02357 .02548,0-.09971-.17549-.2782-.38998zm-.85197-1.244c-.47344-.74997-2.49717-3.75547-2.75926-4.0525-.25132-.28482-.66588-.92139-.98078-1.50602-.09239-.17152-.4981-.86243-.90159-1.53535-3.2883-5.48405-5.79955-10.72233-7.83803-16.34951-.78628-2.17054-1.83461-5.85537-1.83461-6.44862 0-.1766-.09072-.11795-.41454.26803-.57583.68635-.68954,1.01393-.84132,2.42371-.15942,1.48065-.39706,2.21592-1.00605,3.11269l-.45837.67498 .38235.92032c.45849,1.10359 2.17278,4.42756 2.76663,5.36442l1.04978,1.66922c1.11465,1.78177 1.8135,2.77703 3.65682,5.20787 1.79536,2.3676 2.03022,2.6678 3.32365,4.24836 .59494.72701.57015.83548.81389,1.08416 1.81163,1.84829 3.10252,3.2388 5.04143,4.91824zm1.29119-.34668c1.03257-.56118 2.27474-.84626 3.95602-.90791l1.46049-.06027c.04478-.00937-.75984-1.50202-.87626-1.62553-.11432-.1213-1.97883.34477-2.90619.72647-.74338.30597-2.00993,1.0123-2.48282,1.38462-.16708.13154-.17889.21336-.07417.51376 .06851.19652.14338.3573.16638.3573s.36345-.1748.75655-.38844zm28.99331-5.84281c.52572-.36634 1.19989-.61411 1.81038-.90968 3.90512-1.29771 4.45856-1.41399 7.02617-1.04506-.67899-1.19823-2.07783-2.93749-2.62641-3.32907-2.82845-2.98965-7.06777-4.22098-9.62643-2.7665-.46413.26383-.68662-.4909-1.81048-1.62893-1.30192-1.56367-3.04991-2.64611-4.52799-4.03154-1.25223-1.37298-4.92447-4.59212-8.00383-7.0163-.48625-.38279-2.40656-1.78133-3.24129-2.36059l-1.47848-1.02697c-.37531-.26098-.74455-.47458-.82054-.47466s-.19438-.1052-.2631-.2336l-.12494-.23344 .44694.22801c.24582.1254.6019.3584.7913.51777s.39625.28976.45968.28976 .39804.2303.74359.51178 .66119.51178.70144.51178 .36356.21955.71848.48787c.81872.61898 1.32154.93724 1.21925.77172-.09154-.14811-2.02566-1.6323-2.67887-2.05569l-2.06697-1.38246c-.89557-.60397-2.24245-1.47087-2.99306-1.92644-2.36802-1.43723-6.52556-3.47445-6.84245-3.35285-.09005.03455-.13491.01618-.09967-.04083s-.33315-.25521-.81863-.44042c-1.04485-.39863-1.39448-.50976-1.39448-.44324 0,.02693.46378.21486 1.03061.41762s1.00846.39081.98139.41789-.54488-.10955-1.15067-.3036-1.15451-.33514-1.21937-.31352 .27479.15726.75478.30143 .84624.28859.8139.32094-.39488-.05302-.80563-.18971-.80319-.22973-.87209-.20677 .27669.16619.76798.31827 .80383.29477.69453.31709-.48226-.06551-.82881-.19516c-.76541-.28638-.73527-.28573-.73527-.01603 0,.18248.25538.29921 1.50692.68878l2.07556.64884c.78264.24745 2.22636.80507 2.50205.9664 .30826.18039 2.13754,1.11561 2.18212,1.11561 .01958,0 .03561-.07677.03561-.17059s.08453-.1706.18785-.1706c.31316,0 3.35108,1.82267 3.66166,2.19689 .10916.13153.09943.17922-.04809.23583-.11813.04533-.26226-.02737-.39905-.20126-.11777-.14973-.48367-.41288-.81311-.58479s-.94171-.53597-1.36061-.80902-.78009-.49646-.80267-.49646-.04242.2431-.0441.54021c-.00441.78022-.61357,1.97152-1.4149,2.76707l-.63925.63464 .58025.32614c.72947.41002 3.52755,2.26913 4.49071,2.98374 .39932.29627 1.12489.82015 1.61238,1.16419s1.20993.87912 1.60542,1.1891 1.05174.81565 1.45832,1.12373c.78649.59594 1.22013.95888 2.36594,1.98013 .39427.35141.87156.75306 1.06063.89256s.40386.32599.4773.41444 .36383.33474.64531.54732c.443.33456 1.7293,1.52452 2.88988,2.67344 .19327.19134.70966.67048 1.14751,1.06475s.86778.85188.95539,1.01688 .36909.5071.62551.7602 .72212.78296 1.03488,1.17743 .65955.80125.77066.90396 .36502.45568.56424.7844c.46715.7708.65536.77673.65536.02066 .47543-2.30205 1.52891-4.19642 3.82963-4.49791-2.72867,1.25582-3.09482,3.05017-3.71311,5.08773-.00279.40952.31819.92797.93473,1.50983 .14115.13321.38458.39528.54096.58238s2.8237,2.83412 2.96747,2.73822l1.9397-1.29374zm-29.6595-28.16585c-1.08301-.55219-1.98479-.92121-2.76073-1.12973-1.17099-.31467-2.25315-.72983-1.94289-.74536 .80261-.04018 5.91247,2.00147 6.36053,2.54135 .23163.2791.06871.21359-1.65691-.66626zm1.43778.34841c-.45094-.29187-1.67122-.93065-2.64641-1.38531-.75578-.35237-.98107-.57408-.34358-.33813 .77879.28826 3.38963,1.62022 3.5466,1.80936 .23108.27842-.06408.23286-.55661-.08592zm-5.45902-2.22631c-.34403-.11486-.57433-.21183-.51178-.21549 .18566-.01085 1.17634.26877 1.26447.3569 .12353.12353-.06554.08801-.75269-.14141zm-1.81967-.23218c-.14702-.09501-.14401-.11048.02172-.11199 .10577-.00095.22395.04944.2626.11199 .08896.14394-.0616.14394-.28432,0zm43.78587,26.45605c0-.02362-.08956-.11318-.19903-.19903-.18038-.14147-.1844-.13744-.04294.04294 .14857.18944.24197.24969.24197.15609zm-.34119-.44654c0-.019-.19192-.21092-.42649-.42648l-.03455.03455c.3648.39697.46104.47878.46104.39193zm-1.02357-1.03195c0-.02361-.08956-.11318-.19903-.19903-.18038-.14146-.1844-.13744-.04294.04294 .14857.18945.24197.2497.24197.15609zm-.69099-.59368c-3.59596-2.51227-3.02801-2.49441.05922.17158 .0421.06812.10804.12385.14652.12385s-.05409-.13294-.20574-.29543zm-10.41491-3.66531c-1.12942-1.45573-2.11772-3.10994-3.06319-4.64269-.16174-.10598-.97919-1.04116-1.81654-2.07818-3.23047-4.00079-3.87269-4.72725-6.93088-7.84007-2.10269-2.14025-4.83406-4.65592-6.29377-5.79674-.54834-.42854-.66979-.47481-1.25102-.47659-1.03148-.00317-1.98181-.25946-4.75105-1.2813-3.46808-1.27971-4.98801-1.51509-6.41106-.99283-.34315.12593-.63742.22897-.65394.22897s-.4462.15991-.4462.21003 .83838.1177 1.35443.29551 1.03922.3927 1.1626.47753 .30575.15423.40527.15423c.2923,0 5.3862,2.61227 6.9929,3.58612 5.84886,3.5451 11.67784,8.08674 16.76321,13.061 1.50048,1.46771 3.89023,3.99073 4.67219,4.93277 .46193.55649.56642.61997.26706.16224zm-42.64893-4.74447c-.03704-.09653-.09174-.15111-.12155-.1213s-.02047.10879.02076.1755c.11214.18145.17769.1462.10079-.0542zm-.56865-1.1373c-.03704-.09652-.09174-.15111-.12155-.12129s-.02047.10878.02076.1755c.11214.18145.17769.1462.10079-.05421zm-.42385-.92331c-.09622-.17754-.17699-.28683-.1795-.24286-.0077.13519.25689.66322.30715.61296 .02601-.026-.03143-.19255-.12765-.3701zm-.53752-1.35394c-.19231-.49625-.44761-1.23493-.56733-1.64151s-.26485-.89278-.3225-1.08043c-.3556-1.15755-.50334-2.37365-.51121-4.208-.00726-1.69348.02295-2.03271.24352-2.73372 .2538-.80666.84272-1.75108 1.64464-2.63746 .23925-.26444.435-.52328.435-.57519s.19985-.18255.4441-.29032 .52692-.32233.62813-.4768c.13607-.20767.28498-.28087.57134-.28087 .37289,0 .74474-.23503.74474-.47071 0-.22643-1.11452.18732-2.27459.84441-1.39641.79095-2.38832,1.81425-2.38832,2.46389 0,.12821-.05118.23311-.11373.23311s-.11373.05161-.11373.11469c0,.18321.42443-.12955.58632-.43205 .07984-.14917.39341-.47908.69684-.73312l.55168-.46189-.36984.55716c-.20341.30643-.49503.70981-.64804.89639-.42773.52157-1.06448,1.97788-1.16943,2.67459-.23677,1.57175.56596,5.24968 1.79382,8.21891 .22678.5484.4294.98001.45027.95914s-.1194-.44397-.3117-.94022zm-1.12501-11.52404c0-.19887.90543-1.08355 1.33632-1.3057 .32387-.16698.36962-.16909.36962-.01705 0,.09543-.08057.17351-.17904.17351s-.48231.28927-.85297.64283-.67394.58144-.67394.50641zm23.09945-9.11674c-.52489-.24667-.98549-.44413-1.02356-.43881-.10597.01482 1.73444.89378 1.86418.89032 .06255-.00166-.31573-.20484-.84062-.45151zm-1.49084-.67594c-.09383-.06064-.24736-.10744-.34119-.104-.11248.00413-.09312.03955.05686.104 .31265.13435.49222.13435.28432,0zm7.61581,58.24821c.07493-.1461.16742-.23444.20554-.19632s-.02318.15766-.13623.26563c-.1965.18768-.19955.18463-.06931-.06931zm.45899-.53156c0-.13421.47524-.86947.52794-.81678 .08096.08096-.15433.59252-.3455.75117-.10034.08328-.18244.1128-.18244.06561zm-6.65318-.36071c-1.15888-.26026-2.19003-1.15592-2.49675-2.16869-.13049-.43086.13637-.28887.44416.23633 .70869,1.20929 2.26442,1.94326 3.59921,1.69806 .33783-.06206.71659-.15251.84169-.201 .20247-.07848.20872-.0693.05686.08364-.35811.36064-1.60604.54012-2.44518.35166zm-.03164-.5446c-.26761-.08356-.66774-.29012-.88918-.45903-.39664-.30253-1.06945-1.13566-1.06945-1.32428 0-.21976.23386-.07299.4021.25235 .32708.6325.84071.97912 1.84344,1.24401 .51639.13642.93888.29439.93888.35107 0,.14781-.65719.11344-1.2258-.06412zm7.60001-.68582c-.00279-.16899.20022-.45784.27161-.38645 .03403.03403-.01274.16049-.10393.28103s-.16665.16797-.16768.10542zm.2221-.78939c0-.09752.05118-.17731.11373-.17731s.11373.04816.11373.10702-.05118.13865-.11373.17731-.11373-.0095-.11373-.10702zm-10.40921-2.90771c.0477-.15589.15138-.3602.23041-.45402s.17943-.2878.22312-.43105c.07494-.24574 1.11018-1.16117 1.31314-1.16117 .05182,0 .18796-.03517.30254-.07816 .18339-.0688.18964-.05518.05224.11373-.08585.10554-.20307.19189-.2605.19189-.1324,0-.78595.45723-.97537.68238-.07894.09383-.23753.37531-.35244.62551s-.30138.53128-.41439.62462c-.19075.15754-.19927.14939-.11876-.11373zm.85593-1.76033c0-.10685.89988-.64934 1.0119-.61003 .06236.02189-.1398.18052-.44925.35252s-.56264.28788-.56264.25751zm.28432-.56365c.18765-.15938.39237-.2884.45492-.28672 .13077.00351-.23196.30017-.56865.46508-.1251.06127-.07392-.01899.11373-.17836zm-.28432-.12358c0-.11054.93486-.63286 1.05878-.59155 .07274.02424-.13573.17868-.46326.34319s-.59551.27627-.59551.24836zm-.84434-.69763c-.1362-.35494 1.02891-1.29027 1.8187-1.46002 .20204-.04342.06151.06436-.35643.27339-.37948.18979-.78891.46182-.90984.60451-.21874.25812-.2187.25847.00796.06819 .27195-.22829 1.41594-.77275 1.62699-.77433 .25097-.00187.0429.19658-.28996.27655-.17261.04147-.53035.22874-.79499.41615s-.5717.32547-.68238.30681c-.1488-.02508-.19416.03275-.17413.22197 .03149.29746-.13957.34392-.24592.06678zm1.24239.07539c.03866-.06256.12147-.11373.18402-.11373s.0821.05117.04344.11373-.12147.11373-.18402.11373-.0821-.05118-.04344-.11373zm.44822-.51744c.2445-.18267.45256-.22058.35637-.06494-.03399.055-.17775.12922-.31947.16494-.24858.06265-.24988.05912-.0369-.1zm2.05383-.96105c-.03866-.06255.0095-.11373.10702-.11373s.17731.05118.17731.11373-.04816.11373-.10702.11373-.13865-.05118-.17731-.11373zm-22.80246-37.04707c-.00089-.41072 1.56257-1.72548 2.47699-2.08296 .29509-.11536.4802-.21214.41134-.21507-.2839-.01206-.9274.28866-1.63006.76178-.60316.40611-.67023.4331-.34874.14035 .21893-.19937.64115-.51508.93827-.70158 .52816-.33154.70834-.52218.37129-.39284-.14129.05422-.14612.02831-.02952-.1584 .2341-.37485 1.14296-.44447 1.05298-.08066-.13236.53521-.24374.66076-.83421.94033-.7776.36818-1.41489.83831-1.98184,1.46204-.2344.25787-.42632.40502-.42649.32701zm2.89979-2.64454c.14998-.06444.16935-.09987.05687-.10399-.09383-.00344-.24736.04336-.34119.10399-.20789.13436-.02833.13436.28432,0zm-2.46589,2.54911c.28907-.55987 1.65769-1.54747 2.35216-1.69733l.34119-.07363-.28432.23391c-.15638.12865-.33328.23505-.39311.23644-.13875.00323-1.38072.85573-1.81092,1.24303-.27988.25198-.30968.26035-.20499.05758zm.52168-1.73645c.11916-.1342.26292-.24401.31947-.24401 .1601,0-.01012.21214-.28656.35713-.24782.12998-.24805.12919-.0329-.11312zm8.54121-3.85492c.15904-1.40689.64966-2.89902 1.20554-3.66639 .46981-.64856.53604-.50425.11277.24573-.43956.77885-.8583,2.06628-1.0386,3.1932-.1641,1.02564-.39078,1.20997-.27972.22746zm-.33375-.27336c.16668-1.52724.89527-3.44803 1.52361-4.01667 .31949-.28913.2919-.1787-.16158.64677-.55695,1.01381-.9251,2.05368-1.08967,3.07787-.17457,1.08636-.3835,1.31038-.27236.29203zm13.41195-4.1781c-.43786-.17351-1.02143-.43143-1.29683-.57317-.56225-.28938-1.29569-.56786-1.70616-.64783-.15042-.0293-.35513-.0944-.45492-.14466s-.4885-.14919-.86381-.21985c-1.12903-.21254-1.15209-.21977-.73924-.23171 .88558-.02561 2.93507.6218 4.81879,1.5222 1.38443.66175 1.48893.78906.24218.29502zm-10.06506-.57823c0-.19938 2.32241-1.0165 2.4699-.86901 .07024.07024.02362.08672-.81126.28661-.3075.07362-.80648.25226-1.10886.39697s-.54978.22816-.54978.18543z" fill="#30394a"/>
 <path d="m33.488 6.044c3.0723 1.5638 0.56376 6.0051-4.2119 4.5241-2.7928-0.86608-4.8616-1.8724-7.3894-2.1148-2.644-0.25357-3.1893 1.2332-3.2447 2.9336-0.25278 7.7577-2.7267 5.9443-2.2325-2.0998 0.49422-8.0021 4.3994-7.468 7.7099-6.788s6.3296 1.9981 9.3685 3.5448z" fill="#303b47" fill-rule="evenodd"/>
 <path d="m18.609 11.492c0 1.6867-0.23054 3.7431-0.86137 4.5216s4.1721 1.3226 6.0268 2.0723c2.2288 0.90095 3.9381-2.6455 2.9366-3.4212-2.3125-1.791-7.4294-2.9205-8.102-3.1727z" fill="#303b47" fill-rule="evenodd"/>
 <path d="m10.226 11.534c-6.0461 0.98393-5.0975 8.5988-3.2316 12.556 1.6999-1.2787 1.9863-5.7568 2.9662-6.6377 0.13925-3.0368 0.12612-5.918 0.26536-5.918z" fill="#303b47" fill-rule="evenodd"/>
</svg>
